<svg width="182" height="56" viewBox="0 0 182 56" fill="none" xmlns="http://www.w3.org/2000/svg">
<path d="M0.862549 54.1935V1.64218H6.85448V48.5483H29.8558V54.1935H0.862549ZM78.9569 27.9178C78.9569 33.4603 78.0147 38.2501 76.1301 42.2874C74.2456 46.3244 71.6604 49.4378 68.3745 51.6274C65.0885 53.8172 61.3355 54.9119 57.1153 54.9119C52.8953 54.9119 49.1422 53.8172 45.8563 51.6274C42.5705 49.4378 39.9852 46.3244 38.1008 42.2874C36.2161 38.2501 35.2738 33.4603 35.2738 27.9178C35.2738 22.3754 36.2161 17.5855 38.1008 13.5483C39.9852 9.51119 42.5705 6.39781 45.8563 4.20817C49.1422 2.01852 52.8953 0.923706 57.1153 0.923706C61.3355 0.923706 65.0885 2.01852 68.3745 4.20817C71.6604 6.39781 74.2456 9.51119 76.1301 13.5483C78.0147 17.5855 78.9569 22.3754 78.9569 27.9178ZM73.1584 27.9178C73.1584 23.3675 72.4416 19.5272 71.0079 16.3966C69.5905 13.2661 67.6657 10.8968 65.2336 9.28882C62.8174 7.68079 60.1114 6.87679 57.1153 6.87679C54.1195 6.87679 51.4053 7.68079 48.9731 9.28882C46.557 10.8968 44.6322 13.2661 43.1986 16.3966C41.7812 19.5272 41.0725 23.3675 41.0725 27.9178C41.0725 32.4682 41.7812 36.3085 43.1986 39.4391C44.6322 42.5695 46.557 44.9389 48.9731 46.5468C51.4053 48.1549 54.1195 48.959 57.1153 48.959C60.1114 48.959 62.8174 48.1549 65.2336 46.5468C67.6657 44.9389 69.5905 42.5695 71.0079 39.4391C72.4416 36.3085 73.1584 32.4682 73.1584 27.9178ZM122.857 18.0645C122.326 16.3367 121.625 14.7886 120.755 13.42C119.902 12.0344 118.879 10.8541 117.687 9.87899C116.511 8.90392 115.174 8.15977 113.676 7.64657C112.178 7.13338 110.535 6.87679 108.747 6.87679C105.816 6.87679 103.15 7.68079 100.75 9.28882C98.3503 10.8968 96.4415 13.2661 95.0241 16.3966C93.6065 19.5272 92.8979 23.3675 92.8979 27.9178C92.8979 32.4682 93.6147 36.3085 95.0482 39.4391C96.4818 42.5695 98.4227 44.9389 100.871 46.5468C103.319 48.1549 106.074 48.959 109.134 48.959C111.969 48.959 114.466 48.3175 116.624 47.0344C118.798 45.7342 120.49 43.904 121.698 41.5433C122.922 39.1655 123.534 36.3685 123.534 33.1525L125.37 33.5629H110.487V27.9178H129.333V33.5629C129.333 37.891 128.463 41.6544 126.723 44.8532C125 48.0523 122.616 50.5327 119.572 52.2947C116.543 54.0396 113.064 54.9119 109.134 54.9119C104.753 54.9119 100.903 53.8172 97.585 51.6274C94.2831 49.4378 91.7059 46.3244 89.8536 42.2874C88.0172 38.2501 87.0993 33.4603 87.0993 27.9178C87.0993 23.7609 87.6226 20.0232 88.6697 16.7045C89.7328 13.3687 91.2308 10.529 93.1636 8.18544C95.0965 5.84184 97.3838 4.04565 100.025 2.79688C102.667 1.5481 105.574 0.923706 108.747 0.923706C111.357 0.923706 113.789 1.34282 116.044 2.18105C118.315 3.00215 120.337 4.17394 122.109 5.69644C123.896 7.20181 125.386 9.00654 126.578 11.1107C127.77 13.1977 128.592 15.5156 129.043 18.0645H122.857ZM181.345 27.9178C181.345 33.4603 180.403 38.2501 178.518 42.2874C176.634 46.3244 174.048 49.4378 170.762 51.6274C167.477 53.8172 163.724 54.9119 159.504 54.9119C155.284 54.9119 151.53 53.8172 148.245 51.6274C144.959 49.4378 142.374 46.3244 140.489 42.2874C138.604 38.2501 137.662 33.4603 137.662 27.9178C137.662 22.3754 138.604 17.5855 140.489 13.5483C142.374 9.51119 144.959 6.39781 148.245 4.20817C151.53 2.01852 155.284 0.923706 159.504 0.923706C163.724 0.923706 167.477 2.01852 170.762 4.20817C174.048 6.39781 176.634 9.51119 178.518 13.5483C180.403 17.5855 181.345 22.3754 181.345 27.9178ZM175.547 27.9178C175.547 23.3675 174.831 19.5272 173.397 16.3966C171.978 13.2661 170.054 10.8968 167.622 9.28882C165.206 7.68079 162.5 6.87679 159.504 6.87679C156.508 6.87679 153.794 7.68079 151.361 9.28882C148.945 10.8968 147.02 13.2661 145.587 16.3966C144.17 19.5272 143.461 23.3675 143.461 27.9178C143.461 32.4682 144.17 36.3085 145.587 39.4391C147.02 42.5695 148.945 44.9389 151.361 46.5468C153.794 48.1549 156.508 48.959 159.504 48.959C162.5 48.959 165.206 48.1549 167.622 46.5468C170.054 44.9389 171.978 42.5695 173.397 39.4391C174.831 36.3085 175.547 32.4682 175.547 27.9178Z" fill="black"/>
</svg>
