<svg width="108" height="31" viewBox="0 0 108 31" fill="none" xmlns="http://www.w3.org/2000/svg">
<g clip-path="url(#clip0_6_46)">
<path d="M1.0071 30V0.909079H4.52983V26.875H18.0526V30H1.0071ZM46.9197 15.4545C46.9197 18.5227 46.3658 21.1742 45.2578 23.4091C44.1499 25.6439 42.63 27.3674 40.6982 28.5795C38.7663 29.7917 36.5599 30.3977 34.0788 30.3977C31.5978 30.3977 29.3913 29.7917 27.4595 28.5795C25.5277 27.3674 24.0078 25.6439 22.8999 23.4091C21.7919 21.1742 21.2379 18.5227 21.2379 15.4545C21.2379 12.3864 21.7919 9.73484 22.8999 7.49999C24.0078 5.26514 25.5277 3.54166 27.4595 2.32954C29.3913 1.11741 31.5978 0.511353 34.0788 0.511353C36.5599 0.511353 38.7663 1.11741 40.6982 2.32954C42.63 3.54166 44.1499 5.26514 45.2578 7.49999C46.3658 9.73484 46.9197 12.3864 46.9197 15.4545ZM43.5107 15.4545C43.5107 12.9356 43.0893 10.8097 42.2464 9.07669C41.4131 7.34374 40.2815 6.03219 38.8516 5.14204C37.4311 4.25188 35.8402 3.80681 34.0788 3.80681C32.3175 3.80681 30.7218 4.25188 29.2919 5.14204C27.8714 6.03219 26.7398 7.34374 25.897 9.07669C25.0637 10.8097 24.647 12.9356 24.647 15.4545C24.647 17.9735 25.0637 20.0994 25.897 21.8324C26.7398 23.5653 27.8714 24.8769 29.2919 25.767C30.7218 26.6572 32.3175 27.1023 34.0788 27.1023C35.8402 27.1023 37.4311 26.6572 38.8516 25.767C40.2815 24.8769 41.4131 23.5653 42.2464 21.8324C43.0893 20.0994 43.5107 17.9735 43.5107 15.4545ZM72.7294 9.99999C72.4169 9.04355 72.005 8.18654 71.4936 7.42897C70.9917 6.66192 70.3904 6.00851 69.6896 5.46874C68.9983 4.92897 68.2124 4.51703 67.3317 4.23294C66.451 3.94885 65.4851 3.80681 64.4339 3.80681C62.7105 3.80681 61.1432 4.25188 59.7322 5.14204C58.3213 6.03219 57.1991 7.34374 56.3658 9.07669C55.5324 10.8097 55.1158 12.9356 55.1158 15.4545C55.1158 17.9735 55.5372 20.0994 56.38 21.8324C57.2228 23.5653 58.3639 24.8769 59.8033 25.767C61.2427 26.6572 62.862 27.1023 64.6612 27.1023C66.3279 27.1023 67.7957 26.7472 69.0646 26.0369C70.343 25.3172 71.3374 24.304 72.0476 22.9972C72.7673 21.6809 73.1271 20.1326 73.1271 18.3523L74.2067 18.5795H65.4567V15.4545H76.5362V18.5795C76.5362 20.9754 76.0249 23.0587 75.0021 24.8295C73.9889 26.6004 72.5874 27.9735 70.7976 28.9489C69.0173 29.9148 66.9718 30.3977 64.6612 30.3977C62.0855 30.3977 59.8222 29.7917 57.8714 28.5795C55.9302 27.3674 54.415 25.6439 53.326 23.4091C52.2464 21.1742 51.7067 18.5227 51.7067 15.4545C51.7067 13.1534 52.0144 11.0843 52.63 9.24715C53.255 7.40056 54.1357 5.82859 55.272 4.53124C56.4084 3.23389 57.7531 2.23957 59.3061 1.54829C60.8591 0.856997 62.5684 0.511353 64.4339 0.511353C65.968 0.511353 67.398 0.743359 68.7237 1.20738C70.0589 1.66192 71.2474 2.31059 72.2891 3.1534C73.3402 3.98673 74.2161 4.98578 74.9169 6.15056C75.6177 7.30586 76.1006 8.58901 76.3658 9.99999H72.7294ZM107.115 15.4545C107.115 18.5227 106.561 21.1742 105.453 23.4091C104.345 25.6439 102.825 27.3674 100.893 28.5795C98.9616 29.7917 96.7552 30.3977 94.2741 30.3977C91.7931 30.3977 89.5866 29.7917 87.6548 28.5795C85.723 27.3674 84.2031 25.6439 83.0952 23.4091C81.9872 21.1742 81.4332 18.5227 81.4332 15.4545C81.4332 12.3864 81.9872 9.73484 83.0952 7.49999C84.2031 5.26514 85.723 3.54166 87.6548 2.32954C89.5866 1.11741 91.7931 0.511353 94.2741 0.511353C96.7552 0.511353 98.9616 1.11741 100.893 2.32954C102.825 3.54166 104.345 5.26514 105.453 7.49999C106.561 9.73484 107.115 12.3864 107.115 15.4545ZM103.706 15.4545C103.706 12.9356 103.285 10.8097 102.442 9.07669C101.608 7.34374 100.477 6.03219 99.0469 5.14204C97.6264 4.25188 96.0355 3.80681 94.2741 3.80681C92.5128 3.80681 90.9171 4.25188 89.4872 5.14204C88.0668 6.03219 86.9351 7.34374 86.0923 9.07669C85.259 10.8097 84.8423 12.9356 84.8423 15.4545C84.8423 17.9735 85.259 20.0994 86.0923 21.8324C86.9351 23.5653 88.0668 24.8769 89.4872 25.767C90.9171 26.6572 92.5128 27.1023 94.2741 27.1023C96.0355 27.1023 97.6264 26.6572 99.0469 25.767C100.477 24.8769 101.608 23.5653 102.442 21.8324C103.285 20.0994 103.706 17.9735 103.706 15.4545Z" fill="white"/>
</g>
<defs>
<clipPath id="clip0_6_46">
<rect width="107" height="31" fill="white" transform="translate(0.5)"/>
</clipPath>
</defs>
</svg>
